<!DOCTYPE svg PUBLIC "-//W3C//DTD SVG 1.1//EN" "http://www.w3.org/Graphics/SVG/1.1/DTD/svg11.dtd">
<!-- Uploaded to: SVG Repo, www.svgrepo.com, Transformed by: SVG Repo Mixer Tools -->
<svg width="800px" height="800px" viewBox="0 0 40 40" fill="none" xmlns="http://www.w3.org/2000/svg">
<g id="SVGRepo_bgCarrier" stroke-width="0"/>
<g id="SVGRepo_tracerCarrier" stroke-linecap="round" stroke-linejoin="round"/>
<g id="SVGRepo_iconCarrier"> <rect width="40" height="40" rx="8" fill="#9BF1E6" fill-opacity="0.4"/> <path d="M28.4 8.33331H11.6C11.1049 8.33331 10.6301 8.52998 10.2801 8.88005C9.93 9.23011 9.73334 9.70491 9.73334 10.2V29.8C9.73334 30.2951 9.93 30.7698 10.2801 31.1199C10.6301 31.47 11.1049 31.6666 11.6 31.6666H28.4C28.8951 31.6666 29.3699 31.47 29.7199 31.1199C30.07 30.7698 30.2667 30.2951 30.2667 29.8V10.2C30.2667 9.70491 30.07 9.23011 29.7199 8.88005C29.3699 8.52998 28.8951 8.33331 28.4 8.33331Z" fill="white"/> <path d="M24.2 16.5C24.4422 16.4989 24.6753 16.592 24.8501 16.7596C25.025 16.9272 25.1278 17.1563 25.1368 17.3983C25.1459 17.6403 25.0606 17.8764 24.8988 18.0566C24.7371 18.2369 24.5116 18.3472 24.27 18.3643L24.2 18.3666H15.8C15.5578 18.3677 15.3247 18.2746 15.1499 18.107C14.975 17.9394 14.8722 17.7104 14.8631 17.4683C14.8541 17.2263 14.9394 16.9902 15.1012 16.81C15.2629 16.6297 15.4884 16.5194 15.73 16.5023L15.8 16.5H24.2Z" fill="#9BF1E6"/> <path d="M24.2 20.9333C24.7154 20.9333 25.1333 21.3512 25.1333 21.8667C25.1333 22.1142 25.035 22.3516 24.8599 22.5266C24.6849 22.7017 24.4475 22.8 24.2 22.8H15.8C15.5524 22.8 15.315 22.7017 15.14 22.5266C14.965 22.3516 14.8666 22.1142 14.8666 21.8667C14.8666 21.3512 15.2845 20.9333 15.8 20.9333H24.2Z" fill="#9BF1E6"/> </g>
</svg>